<?xml version="1.0" encoding="UTF-8" standalone="no"?>
<svg width="12px" height="10px" viewBox="0 0 12 10" version="1.1" xmlns="http://www.w3.org/2000/svg" xmlns:xlink="http://www.w3.org/1999/xlink">
    <!-- Generator: Sketch 3.8.3 (29802) - http://www.bohemiancoding.com/sketch -->
    <title>Shape</title>
    <desc>Created with Sketch.</desc>
    <defs></defs>
    <g id="Page-1" stroke="none" stroke-width="1" fill="none" fill-rule="evenodd">
        <path d="M12,3.46875 L12,8.78571429 C12,9.08035862 11.8950903,9.33258824 11.6852679,9.54241071 C11.4754454,9.75223319 11.2232158,9.85714286 10.9285714,9.85714286 L1.07142857,9.85714286 C0.776784241,9.85714286 0.524554621,9.75223319 0.314732143,9.54241071 C0.104909665,9.33258824 0,9.08035862 0,8.78571429 L0,3.46875 C0.196429554,3.68750109 0.421873728,3.88169558 0.676339286,4.05133929 C2.29241879,5.14955906 3.4017827,5.91964065 4.00446429,6.36160714 C4.25892984,6.54910808 4.46540099,6.69531198 4.62388393,6.80022321 C4.78236686,6.90513445 4.99330225,7.01227624 5.25669643,7.12165179 C5.5200906,7.23102733 5.76562386,7.28571429 5.99330357,7.28571429 L6,7.28571429 L6.00669643,7.28571429 C6.23437614,7.28571429 6.4799094,7.23102733 6.74330357,7.12165179 C7.00669775,7.01227624 7.21763314,6.90513445 7.37611607,6.80022321 C7.53459901,6.69531198 7.74107016,6.54910808 7.99553571,6.36160714 C8.75446808,5.81249725 9.86606411,5.04241567 11.3303571,4.05133929 C11.5848227,3.87723127 11.8080348,3.68303679 12,3.46875 L12,3.46875 Z M12,1.5 C12,1.85268033 11.8906261,2.18973054 11.671875,2.51116071 C11.4531239,2.83259089 11.1808052,3.10714172 10.8549107,3.33482143 C9.17633089,4.50000583 8.13169848,5.225445 7.72098214,5.51116071 C7.67633906,5.54241087 7.58147394,5.61049055 7.43638393,5.71540179 C7.29129392,5.82031302 7.17075941,5.9051336 7.07477679,5.96986607 C6.97879416,6.03459854 6.8627239,6.10714246 6.7265625,6.1875 C6.5904011,6.26785754 6.46205417,6.3281248 6.34151786,6.36830357 C6.22098154,6.40848234 6.10937551,6.42857143 6.00669643,6.42857143 L6,6.42857143 L5.99330357,6.42857143 C5.89062449,6.42857143 5.77901846,6.40848234 5.65848214,6.36830357 C5.53794583,6.3281248 5.4095989,6.26785754 5.2734375,6.1875 C5.1372761,6.10714246 5.02120584,6.03459854 4.92522321,5.96986607 C4.82924059,5.9051336 4.70870608,5.82031302 4.56361607,5.71540179 C4.41852606,5.61049055 4.32366094,5.54241087 4.27901786,5.51116071 C3.87276583,5.225445 3.28795025,4.818083 2.52455357,4.2890625 C1.7611569,3.760042 1.30357219,3.44196482 1.15178571,3.33482143 C0.874998616,3.14732049 0.613840513,2.88951057 0.368303571,2.56138393 C0.122766629,2.23325729 0,1.92857283 0,1.64732143 C0,1.2991054 0.0926330022,1.00892973 0.277901786,0.776785714 C0.463170569,0.544641696 0.727676853,0.428571429 1.07142857,0.428571429 L10.9285714,0.428571429 C11.2187515,0.428571429 11.469865,0.533481094 11.6819196,0.743303571 C11.8939743,0.953126049 12,1.20535567 12,1.5 L12,1.5 Z" id="Shape" fill="#ffffff"></path>
    </g>
</svg>