<?xml version="1.0" encoding="UTF-8" standalone="no"?>
<svg width="7px" height="11px" viewBox="0 0 7 11" version="1.1" xmlns="http://www.w3.org/2000/svg" xmlns:xlink="http://www.w3.org/1999/xlink">
    <!-- Generator: Sketch 3.8.3 (29802) - http://www.bohemiancoding.com/sketch -->
    <title>Shape</title>
    <desc>Created with Sketch.</desc>
    <defs></defs>
    <g id="Page-1" stroke="none" stroke-width="1" fill="none" fill-rule="evenodd">
        <path d="M5.14285714,4 C5.14285714,3.52678335 4.9754481,3.12276953 4.640625,2.78794643 C4.3058019,2.45312333 3.90178808,2.28571429 3.42857143,2.28571429 C2.95535478,2.28571429 2.55134096,2.45312333 2.21651786,2.78794643 C1.88169475,3.12276953 1.71428571,3.52678335 1.71428571,4 C1.71428571,4.47321665 1.88169475,4.87723047 2.21651786,5.21205357 C2.55134096,5.54687667 2.95535478,5.71428571 3.42857143,5.71428571 C3.90178808,5.71428571 4.3058019,5.54687667 4.640625,5.21205357 C4.9754481,4.87723047 5.14285714,4.47321665 5.14285714,4 L5.14285714,4 Z M6.85714286,4 C6.85714286,4.48660958 6.78348288,4.88615915 6.63616071,5.19866071 L4.19866071,10.3816964 C4.12723179,10.5290186 4.02120606,10.6450889 3.88058036,10.7299107 C3.73995465,10.8147326 3.58928652,10.8571429 3.42857143,10.8571429 C3.26785634,10.8571429 3.1171882,10.8147326 2.9765625,10.7299107 C2.8359368,10.6450889 2.73214319,10.5290186 2.66517857,10.3816964 L0.220982143,5.19866071 C0.0736599777,4.88615915 0,4.48660958 0,4 C0,3.0535667 0.33481808,2.24553906 1.00446429,1.57589286 C1.67411049,0.906246652 2.48213813,0.571428571 3.42857143,0.571428571 C4.37500473,0.571428571 5.18303237,0.906246652 5.85267857,1.57589286 C6.52232478,2.24553906 6.85714286,3.0535667 6.85714286,4 L6.85714286,4 Z" id="Shape" fill="#ffffff"></path>
    </g>
</svg>