<?xml version="1.0" encoding="UTF-8" standalone="no"?>
<svg width="10px" height="10px" viewBox="0 0 10 10" version="1.1" xmlns="http://www.w3.org/2000/svg" xmlns:xlink="http://www.w3.org/1999/xlink">
    <!-- Generator: Sketch 3.8.3 (29802) - http://www.bohemiancoding.com/sketch -->
    <title>Shape</title>
    <desc>Created with Sketch.</desc>
    <defs></defs>
    <g id="Page-1" stroke="none" stroke-width="1" fill="none" fill-rule="evenodd">
        <path d="M9.42857143,8.01785714 C9.42857143,8.13839346 9.40625022,8.29575796 9.36160714,8.48995536 C9.31696406,8.68415276 9.27008953,8.83705301 9.22098214,8.94866071 C9.12723167,9.17187612 8.85491297,9.40848089 8.40401786,9.65848214 C7.9843729,9.88616185 7.56919848,10 7.15848214,10 C7.03794583,10 6.9207595,9.99218758 6.80691964,9.9765625 C6.69307979,9.96093742 6.56473286,9.93303592 6.421875,9.89285714 C6.27901714,9.85267837 6.17299142,9.82031262 6.10379464,9.79575893 C6.03459787,9.77120523 5.91071518,9.72544676 5.73214286,9.65848214 C5.55357054,9.59151752 5.44419663,9.55133935 5.40401786,9.53794643 C4.96651567,9.38169565 4.57589458,9.19642964 4.23214286,8.98214286 C3.66071143,8.62946252 3.07031555,8.14844055 2.4609375,7.5390625 C1.85155945,6.92968445 1.37053748,6.33928857 1.01785714,5.76785714 C0.803570357,5.42410542 0.618304353,5.03348433 0.462053571,4.59598214 C0.448660647,4.55580337 0.408482478,4.44642946 0.341517857,4.26785714 C0.274553237,4.08928482 0.228794766,3.96540213 0.204241071,3.89620536 C0.179687377,3.82700858 0.147321629,3.72098286 0.107142857,3.578125 C0.0669640848,3.43526714 0.0390625781,3.30692021 0.0234375,3.19308036 C0.00781242188,3.0792405 0,2.96205417 0,2.84151786 C0,2.43080152 0.113838147,2.0156271 0.341517857,1.59598214 C0.591519107,1.14508703 0.828123884,0.872768326 1.05133929,0.779017857 C1.16294699,0.729910469 1.31584724,0.683035937 1.51004464,0.638392857 C1.70424204,0.593749777 1.86160654,0.571428571 1.98214286,0.571428571 C2.04464317,0.571428571 2.0915177,0.578124933 2.12276786,0.591517857 C2.2031254,0.618303705 2.32142779,0.787944866 2.47767857,1.10044643 C2.52678596,1.18526828 2.59374958,1.30580279 2.67857143,1.46205357 C2.76339328,1.61830435 2.8415175,1.76004401 2.91294643,1.88727679 C2.98437536,2.01450956 3.05357109,2.13392801 3.12053571,2.24553571 C3.13392864,2.26339295 3.17299075,2.31919596 3.23772321,2.41294643 C3.30245568,2.5066969 3.35044627,2.58593718 3.38169643,2.65066964 C3.41294658,2.71540211 3.42857143,2.77901754 3.42857143,2.84151786 C3.42857143,2.93080402 3.36495599,3.04241004 3.23772321,3.17633929 C3.11049044,3.31026853 2.97209896,3.43303516 2.82254464,3.54464286 C2.67299032,3.65625056 2.53459885,3.77455295 2.40736607,3.89955357 C2.28013329,4.0245542 2.21651786,4.12723174 2.21651786,4.20758929 C2.21651786,4.24776806 2.22767846,4.29799077 2.25,4.35825893 C2.27232154,4.41852709 2.29129456,4.46428556 2.30691964,4.49553571 C2.32254472,4.52678587 2.35379441,4.58035676 2.40066964,4.65625 C2.44754488,4.73214324 2.47321426,4.77455353 2.47767857,4.78348214 C2.81696598,5.39509234 3.20535496,5.91964067 3.64285714,6.35714286 C4.08035933,6.79464504 4.60490766,7.18303402 5.21651786,7.52232143 C5.22544647,7.52678574 5.26785676,7.55245512 5.34375,7.59933036 C5.41964324,7.64620559 5.47321413,7.67745528 5.50446429,7.69308036 C5.53571444,7.70870544 5.58147291,7.72767846 5.64174107,7.75 C5.70200923,7.77232154 5.75223194,7.78348214 5.79241071,7.78348214 C5.87276826,7.78348214 5.9754458,7.71986671 6.10044643,7.59263393 C6.22544705,7.46540115 6.34374944,7.32700968 6.45535714,7.17745536 C6.56696484,7.02790104 6.68973147,6.88950956 6.82366071,6.76227679 C6.95758996,6.63504401 7.06919598,6.57142857 7.15848214,6.57142857 C7.22098246,6.57142857 7.28459789,6.58705342 7.34933036,6.61830357 C7.41406282,6.64955373 7.4933031,6.69754432 7.58705357,6.76227679 C7.68080404,6.82700925 7.73660705,6.86607136 7.75446429,6.87946429 C7.86607199,6.94642891 7.98549044,7.01562464 8.11272321,7.08705357 C8.23995599,7.1584825 8.38169565,7.23660672 8.53794643,7.32142857 C8.69419721,7.40625042 8.81473172,7.47321404 8.89955357,7.52232143 C9.21205513,7.67857221 9.38169629,7.7968746 9.40848214,7.87723214 C9.42187507,7.9084823 9.42857143,7.95535683 9.42857143,8.01785714 L9.42857143,8.01785714 Z" id="Shape" fill="#000000"></path>
    </g>
</svg>