<?xml version="1.0" encoding="UTF-8" standalone="no"?>
<svg width="11px" height="11px" viewBox="0 0 11 11" version="1.1" xmlns="http://www.w3.org/2000/svg" xmlns:xlink="http://www.w3.org/1999/xlink">
    <!-- Generator: Sketch 3.8.3 (29802) - http://www.bohemiancoding.com/sketch -->
    <title>Shape</title>
    <desc>Created with Sketch.</desc>
    <defs></defs>
    <g id="Page-1" stroke="none" stroke-width="1" fill="none" fill-rule="evenodd">
        <path d="M10.8482143,2.44642857 C10.5491056,2.88393076 10.1875021,3.25669489 9.76339286,3.56473214 C9.76785717,3.62723246 9.77008929,3.72098152 9.77008929,3.84598214 C9.77008929,4.42634219 9.68526871,5.00557747 9.515625,5.58370536 C9.34598129,6.16183325 9.08817137,6.7165152 8.7421875,7.24776786 C8.39620363,7.77902051 7.98437739,8.24888189 7.50669643,8.65736607 C7.02901547,9.06585026 6.45312837,9.39173985 5.77901786,9.63504464 C5.10490734,9.87834943 4.38393241,10 3.61607143,10 C2.40624395,10 1.29911217,9.67634252 0.294642857,9.02901786 C0.450893638,9.04687509 0.62499904,9.05580357 0.816964286,9.05580357 C1.82143359,9.05580357 2.71651393,8.74777094 3.50223214,8.13169643 C3.0334798,8.12276781 2.61384114,7.97879604 2.24330357,7.69977679 C1.872766,7.42075753 1.61830426,7.06473431 1.47991071,6.63169643 C1.62723288,6.65401797 1.76339223,6.66517857 1.88839286,6.66517857 C2.0803581,6.66517857 2.27008835,6.64062525 2.45758929,6.59151786 C1.95758679,6.48883877 1.54352843,6.23995733 1.21540179,5.84486607 C0.887275145,5.44977481 0.723214286,4.99107404 0.723214286,4.46875 L0.723214286,4.44196429 C1.02678723,4.61160799 1.35267683,4.70312493 1.70089286,4.71651786 C1.40624853,4.5200883 1.17187587,4.26339444 0.997767857,3.94642857 C0.823659844,3.6294627 0.736607143,3.28571614 0.736607143,2.91517857 C0.736607143,2.52231946 0.834820446,2.15848382 1.03125,1.82366071 C1.57143127,2.48884261 2.22879077,3.02120336 3.00334821,3.42075893 C3.77790566,3.8203145 4.60713844,4.04241049 5.49107143,4.08705357 C5.45535696,3.91740987 5.4375,3.75223295 5.4375,3.59151786 C5.4375,2.99330058 5.64843539,2.48326104 6.0703125,2.06138393 C6.49218961,1.63950682 7.00222915,1.42857143 7.60044643,1.42857143 C8.22544955,1.42857143 8.75223,1.65624772 9.18080357,2.11160714 C9.66741315,2.01785667 10.1249979,1.84375127 10.5535714,1.58928571 C10.388392,2.10268114 10.0714309,2.49999859 9.60267857,2.78125 C10.0178592,2.73660692 10.4330336,2.62500089 10.8482143,2.44642857 L10.8482143,2.44642857 Z" id="Shape" fill="#ffffff"></path>
    </g>
</svg>