<svg xmlns="http://www.w3.org/2000/svg" viewBox="0 0 47.57 11.93"><defs><style>.cls-1{fill:#ffffff;}</style></defs><title>Asset 2</title><g id="Layer_2" data-name="Layer 2"><g id="Layer_1-2" data-name="Layer 1"><path class="cls-1" d="M3.53,8.83H3.35l-.2,0A.54.54,0,0,1,3,8.7a.13.13,0,0,1-.07-.11A1.73,1.73,0,0,1,3,8.18q.12-.32.26-.74t.26-.86a3,3,0,0,0,.12-.76.71.71,0,0,0-.07-.33.24.24,0,0,0-.23-.13,1.06,1.06,0,0,0-.64.32A5.82,5.82,0,0,0,2,6.53a10,10,0,0,0-.75,1.13A7.4,7.4,0,0,0,.65,8.89l-.2,0L.24,8.81.07,8.73S0,8.67,0,8.64a2.21,2.21,0,0,1,.13-.43q.13-.36.28-.85t.29-1a3.82,3.82,0,0,0,.13-.92.78.78,0,0,1,.23-.17.67.67,0,0,1,.32-.08q.32,0,.32.31A2.61,2.61,0,0,1,1.61,6q-.09.37-.22.83.24-.38.55-.79a7.87,7.87,0,0,1,.64-.74,3.5,3.5,0,0,1,.68-.55,1.3,1.3,0,0,1,.67-.21.52.52,0,0,1,.51.27,1.4,1.4,0,0,1,.14.64,2.83,2.83,0,0,1,0,.47c0,.16-.06.32-.1.48a4.3,4.3,0,0,1-.12.43l-.11.31q.19-.34.41-.67a3.76,3.76,0,0,1,.47-.59A2.55,2.55,0,0,1,5.6,5.5a1.14,1.14,0,0,1,.59-.16.59.59,0,0,1,.53.23,1,1,0,0,1,.15.54,2,2,0,0,1-.07.51l-.15.54-.15.52a1.59,1.59,0,0,0-.07.44.52.52,0,0,0,.08.29.31.31,0,0,0,.28.12.76.76,0,0,0,.48-.18,2.31,2.31,0,0,0,.43-.46,5.18,5.18,0,0,0,.38-.61q.17-.33.32-.64l.14.17a5.74,5.74,0,0,1-.35.76,4.5,4.5,0,0,1-.47.69,2.27,2.27,0,0,1-.58.5,1.29,1.29,0,0,1-.68.19.71.71,0,0,1-.61-.26,1,1,0,0,1-.19-.62,2,2,0,0,1,.05-.44q.05-.23.13-.45T6,6.74A1.49,1.49,0,0,0,6,6.36.43.43,0,0,0,5.92,6a.35.35,0,0,0-.24-.1q-.3,0-.65.46T4.1,7.72a4,4,0,0,0-.32.58Z"/><path class="cls-1" d="M11.81,5a1.51,1.51,0,0,1-.27.86,2.83,2.83,0,0,1-.7.71,4.09,4.09,0,0,1-1,.51,4.05,4.05,0,0,1-1,.25c0,.08,0,.16,0,.23a1.9,1.9,0,0,0,0,.2,1.56,1.56,0,0,0,0,.36A.86.86,0,0,0,9,8.42a.78.78,0,0,0,.29.23,1.06,1.06,0,0,0,.46.09,1.91,1.91,0,0,0,.77-.17,3,3,0,0,0,.73-.46,4.8,4.8,0,0,0,.65-.68,5.21,5.21,0,0,0,.53-.82l.14.11a4.52,4.52,0,0,1-.59,1,4.25,4.25,0,0,1-.75.74,3.32,3.32,0,0,1-.85.47,2.54,2.54,0,0,1-.89.17A1.33,1.33,0,0,1,8,7.7a2.49,2.49,0,0,1,.13-.76,3.93,3.93,0,0,1,.35-.78A5.06,5.06,0,0,1,9,5.44a4.2,4.2,0,0,1,.64-.61,3.3,3.3,0,0,1,.7-.42,1.8,1.8,0,0,1,.72-.16,1,1,0,0,1,.51.14A.64.64,0,0,1,11.81,5ZM11,4.62a1.1,1.1,0,0,0-.61.22,3.22,3.22,0,0,0-.62.58,4.74,4.74,0,0,0-.54.79,4.09,4.09,0,0,0-.36.87,5.31,5.31,0,0,0,.73-.32,5,5,0,0,0,.78-.5A3.14,3.14,0,0,0,11,5.63a1.23,1.23,0,0,0,.25-.73.36.36,0,0,0,0-.2A.23.23,0,0,0,11,4.62Z"/><path class="cls-1" d="M14.76,4.51a1,1,0,0,1,.41.08.71.71,0,0,1,.26.2.8.8,0,0,1,.14.29,1.27,1.27,0,0,1,0,.32,1.14,1.14,0,0,1-.16.61.49.49,0,0,1-.44.26.43.43,0,0,1-.35-.18A.79.79,0,0,0,15,5.71a1.35,1.35,0,0,0,.13-.56.39.39,0,0,0-.05-.22.24.24,0,0,0-.21-.08,1.06,1.06,0,0,0-.67.29,3.32,3.32,0,0,0-.64.74,4.7,4.7,0,0,0-.47,1,2.79,2.79,0,0,0-.19,1,1.56,1.56,0,0,0,0,.36,1,1,0,0,0,.14.32.66.66,0,0,0,.27.23,1,1,0,0,0,.43.08,1.9,1.9,0,0,0,.73-.15,2.76,2.76,0,0,0,.71-.43,3.56,3.56,0,0,0,.63-.68,4,4,0,0,0,.48-.91l.16.12a4.46,4.46,0,0,1-1.26,1.8,3.22,3.22,0,0,1-.84.52,2.26,2.26,0,0,1-.88.19,1.31,1.31,0,0,1-1-.38,1.56,1.56,0,0,1-.38-1.16,3,3,0,0,1,.24-1.18,3.93,3.93,0,0,1,.62-1,3.18,3.18,0,0,1,.85-.72A1.84,1.84,0,0,1,14.76,4.51Z"/><path class="cls-1" d="M19,8.1a1.59,1.59,0,0,1,.06-.41l.13-.46.13-.48a1.88,1.88,0,0,0,.06-.46.62.62,0,0,0-.13-.44A.44.44,0,0,0,19,5.71a.74.74,0,0,0-.54.25,2.74,2.74,0,0,0-.44.61,7.07,7.07,0,0,0-.37.8q-.17.43-.33.8a4.77,4.77,0,0,1-.32.61c-.1.16-.21.25-.32.25a.28.28,0,0,1-.2-.11.83.83,0,0,1-.16-.28,2.37,2.37,0,0,1-.1-.4,2.89,2.89,0,0,1,0-.46,6,6,0,0,1,.19-1.37,15.77,15.77,0,0,1,.5-1.66q.31-.86.71-1.71t.79-1.52A7,7,0,0,1,19.11.41q.37-.41.63-.41a.27.27,0,0,1,.19.07A.47.47,0,0,1,20,.26a1.46,1.46,0,0,1,.07.25,1.44,1.44,0,0,1,0,.25,2.57,2.57,0,0,1-.11.67,6.75,6.75,0,0,1-.29.83,8.87,8.87,0,0,1-.44.89,8.5,8.5,0,0,1-.56.87,6.33,6.33,0,0,1-.65.76,4,4,0,0,1-.7.56,4.86,4.86,0,0,0-.19.58q-.08.31-.14.63T17,7.15c0,.2,0,.38,0,.54s0,.16,0,.23,0,.12,0,.18q.22-.61.47-1.18a5.87,5.87,0,0,1,.56-1,2.86,2.86,0,0,1,.66-.68A1.27,1.27,0,0,1,19.39,5a.87.87,0,0,1,.43.1.84.84,0,0,1,.28.25,1,1,0,0,1,.16.35,1.64,1.64,0,0,1,0,.39,2,2,0,0,1-.08.55,5.42,5.42,0,0,1-.18.52q-.1.25-.18.49a1.47,1.47,0,0,0-.08.46.49.49,0,0,0,.1.35.34.34,0,0,0,.26.11.89.89,0,0,0,.46-.16,2.67,2.67,0,0,0,.5-.41,4.59,4.59,0,0,0,.49-.61A4.83,4.83,0,0,0,22,6.62l.16.14a5.23,5.23,0,0,1-.44.82,3.78,3.78,0,0,1-.55.66,2.59,2.59,0,0,1-.63.44,1.53,1.53,0,0,1-.68.16.82.82,0,0,1-.62-.22A.75.75,0,0,1,19,8.1ZM19.68,1q-.1,0-.35.33a8.44,8.44,0,0,0-.58.88q-.32.55-.65,1.25a11.23,11.23,0,0,0-.56,1.43,4.74,4.74,0,0,0,.8-.88A10.45,10.45,0,0,0,19,2.86a8.27,8.27,0,0,0,.5-1.07,2.39,2.39,0,0,0,.19-.73C19.73,1,19.71,1,19.68,1Z"/><path class="cls-1" d="M25.43,5a1.51,1.51,0,0,1-.27.86,2.83,2.83,0,0,1-.7.71,4.09,4.09,0,0,1-1,.51,4.05,4.05,0,0,1-1,.25c0,.08,0,.16,0,.23a1.9,1.9,0,0,0,0,.2,1.56,1.56,0,0,0,0,.36.86.86,0,0,0,.15.32.78.78,0,0,0,.29.23,1.06,1.06,0,0,0,.46.09,1.91,1.91,0,0,0,.77-.17,3,3,0,0,0,.73-.46,4.8,4.8,0,0,0,.65-.68A5.21,5.21,0,0,0,26,6.62l.14.11a4.52,4.52,0,0,1-.59,1,4.25,4.25,0,0,1-.75.74,3.32,3.32,0,0,1-.85.47,2.54,2.54,0,0,1-.89.17A1.33,1.33,0,0,1,21.64,7.7a2.49,2.49,0,0,1,.13-.76,3.93,3.93,0,0,1,.35-.78,5.06,5.06,0,0,1,.52-.73,4.2,4.2,0,0,1,.64-.61A3.3,3.3,0,0,1,24,4.4a1.8,1.8,0,0,1,.72-.16,1,1,0,0,1,.51.14A.64.64,0,0,1,25.43,5Zm-.78-.36a1.1,1.1,0,0,0-.61.22,3.22,3.22,0,0,0-.62.58,4.74,4.74,0,0,0-.54.79,4.09,4.09,0,0,0-.36.87,5.31,5.31,0,0,0,.73-.32,5,5,0,0,0,.78-.5,3.14,3.14,0,0,0,.62-.64,1.23,1.23,0,0,0,.25-.73.36.36,0,0,0,0-.2A.23.23,0,0,0,24.65,4.62Z"/><path class="cls-1" d="M29.46,5a20.56,20.56,0,0,1-2.11.14h-.18a11.56,11.56,0,0,0-.47,1.31,4.65,4.65,0,0,0-.19,1.31,1.32,1.32,0,0,0,.16.74.59.59,0,0,0,.52.22,1.81,1.81,0,0,0,1.22-.55,4.9,4.9,0,0,0,1.06-1.5l.16.12a5.27,5.27,0,0,1-.52.94,4.26,4.26,0,0,1-.67.76,3,3,0,0,1-.77.5,2,2,0,0,1-.83.18q-1.07,0-1.07-1.19A5.47,5.47,0,0,1,26,6.63,14.7,14.7,0,0,1,26.46,5l-.23,0L26,4.94V4.73l.23,0,.3,0q.25-.65.54-1.25t.57-1.08a4.64,4.64,0,0,1,.54-.76q.26-.28.44-.28a.26.26,0,0,1,.17.07.25.25,0,0,1,.08.2,1.19,1.19,0,0,1-.15.46q-.15.31-.38.71l-.52.91q-.28.5-.55,1.06h1.27q.43,0,.89-.06Z"/><path class="cls-1" d="M29.26,7q.17-.31.44-.91t.53-1.37a.39.39,0,0,1-.12-.29.88.88,0,0,1,.06-.33,1.06,1.06,0,0,1,.14-.26.85.85,0,0,1,.17-.17.26.26,0,0,1,.13-.06.13.13,0,0,1,.15.11,1.25,1.25,0,0,1,0,.17.44.44,0,0,1,0,.1l0,.14,0,.13,0,.07a.38.38,0,0,0,.19.31l.42.31a2.34,2.34,0,0,1,.42.42,1,1,0,0,1,.19.63,1.73,1.73,0,0,1-.1.56c-.06.19-.13.37-.2.55l-.2.5a1.13,1.13,0,0,0-.1.43.32.32,0,0,0,.11.29.44.44,0,0,0,.25.07,1.2,1.2,0,0,0,.6-.18,3.1,3.1,0,0,0,.59-.45,4.39,4.39,0,0,0,.51-.58,2.81,2.81,0,0,0,.34-.58l.16.12a4.23,4.23,0,0,1-.44.76,3.92,3.92,0,0,1-.61.67,3.34,3.34,0,0,1-.71.48,1.67,1.67,0,0,1-.76.19.91.91,0,0,1-.64-.22.73.73,0,0,1-.23-.56,1.7,1.7,0,0,1,.1-.56q.1-.29.23-.59T31,6.38a1.55,1.55,0,0,0,.1-.52A.83.83,0,0,0,31,5.53a.78.78,0,0,0-.16-.24,1.4,1.4,0,0,0-.22-.18l-.23-.16-.29.7q-.14.34-.29.64l-.27.55q-.13.25-.22.41Z"/><path class="cls-1" d="M36.67,7.81a1.32,1.32,0,0,1-.58-.12,4.8,4.8,0,0,1-.9.9,1.57,1.57,0,0,1-.94.36.82.82,0,0,1-.73-.32,1.34,1.34,0,0,1-.22-.77,2.7,2.7,0,0,1,.12-.77,3.51,3.51,0,0,1,.31-.74,2.17,2.17,0,0,1,.44-.56.77.77,0,0,1,.5-.22.67.67,0,0,1,.25.06,1.49,1.49,0,0,0-.26.36,5,5,0,0,0-.28.59,5.88,5.88,0,0,0-.22.65,2.12,2.12,0,0,0-.09.55.92.92,0,0,0,.11.52.37.37,0,0,0,.32.16,1.05,1.05,0,0,0,.6-.27,4.16,4.16,0,0,0,.68-.69,1.72,1.72,0,0,1-.53-.73,2.45,2.45,0,0,1-.18-.92,2,2,0,0,1,.08-.57,1.56,1.56,0,0,1,.23-.48,1.17,1.17,0,0,1,.37-.34,1,1,0,0,1,.5-.13.72.72,0,0,1,.66.26,1.21,1.21,0,0,1,.17.66,2.82,2.82,0,0,1-.23,1,6.11,6.11,0,0,1-.58,1.1.92.92,0,0,0,.46.12,1.38,1.38,0,0,0,.67-.19,1.6,1.6,0,0,0,.34-.26A1.3,1.3,0,0,0,38,6.66l.14.12a1.59,1.59,0,0,1-.3.48,1.89,1.89,0,0,1-.38.32,1.47,1.47,0,0,1-.42.18A1.68,1.68,0,0,1,36.67,7.81ZM35.62,5.89a2.51,2.51,0,0,0,.1.7,1.58,1.58,0,0,0,.31.59,5.05,5.05,0,0,0,.5-.93,2.43,2.43,0,0,0,.2-.92,1,1,0,0,0-.1-.51.3.3,0,0,0-.26-.16.43.43,0,0,0-.25.1,1,1,0,0,0-.24.26,1.55,1.55,0,0,0-.18.38A1.58,1.58,0,0,0,35.62,5.89Z"/><path class="cls-1" d="M37.36,8.48a2.08,2.08,0,0,1,.13-.37q.13-.32.29-.77t.29-.93a3.25,3.25,0,0,0,.14-.88.81.81,0,0,1,.23-.17.68.68,0,0,1,.32-.08q.32,0,.32.31a3.12,3.12,0,0,1-.11.64q-.11.44-.28.95.24-.36.53-.74a5.65,5.65,0,0,1,.61-.68,3.4,3.4,0,0,1,.67-.5,1.4,1.4,0,0,1,.69-.19.83.83,0,0,1,.4.09.78.78,0,0,1,.28.25,1.15,1.15,0,0,1,.16.35,1.45,1.45,0,0,1,.05.4,1.77,1.77,0,0,1-.08.53q-.08.25-.17.48l-.17.45a1.31,1.31,0,0,0-.08.44.49.49,0,0,0,.1.35.35.35,0,0,0,.26.1.77.77,0,0,0,.46-.17,2.4,2.4,0,0,0,.44-.44,5.47,5.47,0,0,0,.41-.6q.2-.33.37-.67l.13.16a7.06,7.06,0,0,1-.41.82,3.59,3.59,0,0,1-.48.64,2.05,2.05,0,0,1-.55.42,1.36,1.36,0,0,1-.63.15.84.84,0,0,1-.63-.22A.76.76,0,0,1,40.85,8a1.52,1.52,0,0,1,.05-.38L41,7.24q.07-.22.12-.43a1.77,1.77,0,0,0,.05-.43.61.61,0,0,0-.14-.46.49.49,0,0,0-.34-.13A1.21,1.21,0,0,0,40,6.1a4.81,4.81,0,0,0-.74.77,11.43,11.43,0,0,0-.68,1q-.32.51-.55.91a1,1,0,0,1-.37-.07A.58.58,0,0,1,37.36,8.48Z"/><path class="cls-1" d="M47.57,6.77a2.76,2.76,0,0,1-.54,1,5.23,5.23,0,0,1-.85.8,1.52,1.52,0,0,1,0,.2,1.74,1.74,0,0,1,0,.2A2.64,2.64,0,0,1,46,10a3.34,3.34,0,0,1-.64,1,3.42,3.42,0,0,1-.92.68,2.32,2.32,0,0,1-1.07.26,1.05,1.05,0,0,1-.58-.14.53.53,0,0,1-.21-.47,1.1,1.1,0,0,1,.26-.71,3.62,3.62,0,0,1,.68-.63q.42-.31.94-.61t1-.65a1.75,1.75,0,0,0-.18-.79,2.3,2.3,0,0,0-.65-.73,1.46,1.46,0,0,0,.56-.29,2.17,2.17,0,0,0,.41-.45,1.93,1.93,0,0,0,.25-.52A1.72,1.72,0,0,0,46,5.42.84.84,0,0,0,45.87,5a.39.39,0,0,0-.35-.18A.92.92,0,0,0,45,5a2,2,0,0,0-.46.47,5.27,5.27,0,0,0-.41.69q-.2.39-.4.83l-.14-.12q.19-.54.4-1a4.58,4.58,0,0,1,.46-.79A2,2,0,0,1,45,4.52a1.35,1.35,0,0,1,.72-.19,1,1,0,0,1,.7.26.92.92,0,0,1,.29.72,1.63,1.63,0,0,1-.12.62,2.05,2.05,0,0,1-.32.53,2.8,2.8,0,0,1-.46.44,3.23,3.23,0,0,1-.52.33,2.41,2.41,0,0,1,.84,1.08,5.26,5.26,0,0,0,.81-.76,2.71,2.71,0,0,0,.52-.93Zm-4.3,4.81a1.39,1.39,0,0,0,.57-.17,2.87,2.87,0,0,0,.7-.5,3.42,3.42,0,0,0,.62-.81A2.78,2.78,0,0,0,45.49,9q-.48.31-.94.58a9.33,9.33,0,0,0-.83.53,3.45,3.45,0,0,0-.59.53.85.85,0,0,0-.23.56.39.39,0,0,0,.1.3A.38.38,0,0,0,43.27,11.58Z"/></g></g></svg>