<?xml version="1.0" encoding="UTF-8"?>
<svg width="12px" height="12px" viewBox="0 0 12 12" version="1.1" xmlns="http://www.w3.org/2000/svg" xmlns:xlink="http://www.w3.org/1999/xlink">
    <!-- Generator: Sketch 43.2 (39069) - http://www.bohemiancoding.com/sketch -->
    <title>Slice</title>
    <desc>Created with Sketch.</desc>
    <defs></defs>
    <g id="Page-1" stroke="none" stroke-width="1" fill="none" fill-rule="evenodd">
        <g id="mechetronz-icon" transform="translate(1.000000, -1.000000)">
            <path d="M4.53,8.83 L4.35,8.83 L4.15,8.83 C4.09239683,8.79630742 4.04153778,8.75222957 4,8.7 C3.9586367,8.67853087 3.93192993,8.6365631 3.93,8.59 C3.9367597,8.45101552 3.96026285,8.31335418 4,8.18 C4.08,7.96666667 4.16666667,7.72 4.26,7.44 C4.35333333,7.16 4.44,6.87333333 4.52,6.58 C4.59245528,6.3328675 4.6327869,6.0774339 4.64,5.82 C4.64351718,5.70597374 4.61950615,5.59277889 4.57,5.49 C4.52622913,5.4045707 4.43576538,5.35343901 4.34,5.36 C4.09602488,5.38926166 3.8697944,5.5023769 3.7,5.68 C3.44032767,5.94057382 3.20594559,6.22518063 3,6.53 C2.72471603,6.88926005 2.47413989,7.26679476 2.25,7.66 C2.01243573,8.05058633 1.81157701,8.46234671 1.65,8.89 L1.45,8.89 L1.24,8.81 L1.07,8.73 C1.07,8.73 1,8.67 1,8.64 C1.02861552,8.49262316 1.07217382,8.34854571 1.13,8.21 C1.21666667,7.97 1.31,7.68666667 1.41,7.36 C1.51,7.03333333 1.60666667,6.7 1.7,6.36 C1.78060614,6.05976533 1.82426232,5.7508139 1.83,5.44 C1.89553342,5.36964165 1.97351069,5.31200627 2.06,5.27 C2.15833326,5.21708315 2.26833331,5.18958314 2.38,5.19 C2.59333333,5.19 2.7,5.29333333 2.7,5.5 C2.68633077,5.66919681 2.65618801,5.83665658 2.61,6 C2.55,6.24666667 2.47666667,6.52333333 2.39,6.83 C2.55,6.57666667 2.73333333,6.31333333 2.94,6.04 C3.13777974,5.78029886 3.35152599,5.53315476 3.58,5.3 C3.78277921,5.08895647 4.01122897,4.90418092 4.26,4.75 C4.45984426,4.61987139 4.69163256,4.54722133 4.93,4.54 C5.13892361,4.51876257 5.34011498,4.62527565 5.44,4.81 C5.53662732,5.00925827 5.58460758,5.22859659 5.58,5.45 C5.59303193,5.60639566 5.59303193,5.76360434 5.58,5.92 C5.58,6.08 5.52,6.24 5.48,6.4 C5.44747251,6.54531446 5.40741854,6.68884118 5.36,6.83 L5.25,7.14 C5.37666667,6.91333333 5.51333333,6.69 5.66,6.47 C5.79649335,6.2580758 5.95395218,6.06041471 6.13,5.88 C6.27104835,5.73514903 6.42882298,5.60758657 6.6,5.5 C6.77843283,5.39394796 6.98243454,5.33862546 7.19,5.34 C7.39468609,5.31900396 7.59552548,5.40616067 7.72,5.57 C7.82044916,5.73202286 7.87249337,5.919382 7.87,6.11 C7.86873365,6.28230563 7.84520547,6.45372523 7.8,6.62 L7.65,7.16 L7.5,7.68 C7.45613176,7.82265446 7.43256714,7.97077491 7.43,8.12 C7.42751151,8.22243741 7.45534308,8.32332684 7.51,8.41 C7.57588752,8.49626245 7.68209442,8.54177969 7.79,8.53 C7.96601787,8.52740138 8.13567512,8.46377991 8.27,8.35 C8.43365795,8.21701263 8.57833509,8.06224173 8.7,7.89 C8.84063627,7.69570942 8.96760845,7.49188566 9.08,7.28 C9.19333333,7.06 9.3,6.84666667 9.4,6.64 L9.54,6.81 C9.44197747,7.07151057 9.3250001,7.32551858 9.19,7.57 C9.05505336,7.81406731 8.89770972,8.04506116 8.72,8.26 C8.55637639,8.45830916 8.36025306,8.62738099 8.14,8.76 C7.93541299,8.88533779 7.69992523,8.95113584 7.46,8.95 C7.22619846,8.96943859 6.99788867,8.87212622 6.85,8.69 C6.71955717,8.51017515 6.65270748,8.29203407 6.66,8.07 C6.66032806,7.92193468 6.67709749,7.77436367 6.71,7.63 C6.74333333,7.47666667 6.78666667,7.32666667 6.84,7.18 C6.89333333,7.03333333 6.94666667,6.88666667 7,6.74 C7.01621833,6.61385248 7.01621833,6.48614752 7,6.36 C7.02875653,6.2340752 6.99938289,6.10189381 6.92,6 C6.85580793,5.93708663 6.76987255,5.90128022 6.68,5.9 C6.48,5.9 6.26333333,6.05333333 6.03,6.36 C5.79666667,6.66666667 5.48666667,7.12 5.1,7.72 C4.97748078,7.90415335 4.87044719,8.09815174 4.78,8.3 L4.53,8.83 Z" id="Shape" fill="#000000" fill-rule="nonzero"></path>
            <circle id="Oval" stroke="#000000" stroke-width="0.5" cx="5" cy="7" r="5.25"></circle>
        </g>
    </g>
</svg>