<svg xmlns="http://www.w3.org/2000/svg" viewBox="0 0 47.29 13.53"><defs><style>.cls-1{fill:#ffffff;}</style></defs><title>Asset 1</title><g id="Layer_2" data-name="Layer 2"><g id="Layer_1-2" data-name="Layer 1"><path class="cls-1" d="M9,6.63a7.86,7.86,0,0,1-.74.93,4.5,4.5,0,0,1-.86.73,1.73,1.73,0,0,1-.95.29,1.48,1.48,0,0,1-.32,0,.82.82,0,0,1-.29-.13.68.68,0,0,1-.22-.25.88.88,0,0,1-.08-.4,3.46,3.46,0,0,1,.05-.56q.05-.32.13-.65l.16-.65L6,5.33a.71.71,0,0,0,0-.47.29.29,0,0,0-.28-.16,1,1,0,0,0-.37.16,2.38,2.38,0,0,0-.6.57,5.22,5.22,0,0,0-.63,1.09,7.1,7.1,0,0,0-.49,1.74,1.46,1.46,0,0,1-.42.15L3,8.45q-.23,0-.3-.08t0-.43q0-.16.17-.53t.24-.79q.12-.43.21-.86A3.77,3.77,0,0,0,3.45,5a.45.45,0,0,0-.08-.3.28.28,0,0,0-.22-.08,1,1,0,0,0-.35.12,1.9,1.9,0,0,0-.55.46,4.24,4.24,0,0,0-.6.94,6.93,6.93,0,0,0-.51,1.56v0l0,.19a1.17,1.17,0,0,0,0,.18,1.17,1.17,0,0,1,0,.18L.44,8.5l-.15,0a.26.26,0,0,1-.16,0A.26.26,0,0,1,0,8.33a.86.86,0,0,1,0-.39L.77,4.89q0-.15.06-.29a1.92,1.92,0,0,0,0-.25.65.65,0,0,0,0-.21L1.2,4l.25-.07.2,0q.38,0,.25.64l-.14.55a6.16,6.16,0,0,1,.47-.53,5.35,5.35,0,0,1,.51-.45,2.55,2.55,0,0,1,.52-.32,1.28,1.28,0,0,1,.52-.12.49.49,0,0,1,.33.12.78.78,0,0,1,.21.31,1.42,1.42,0,0,1,.09.46,3.23,3.23,0,0,1,0,.54q.19-.25.42-.5a4,4,0,0,1,.48-.45,2.76,2.76,0,0,1,.52-.33,1.24,1.24,0,0,1,.54-.13.62.62,0,0,1,.49.19,1,1,0,0,1,.23.48A2.1,2.1,0,0,1,7.1,5a5,5,0,0,1-.1.66L6.6,7.23q-.13.59.25.59a1.07,1.07,0,0,0,.64-.28,5.22,5.22,0,0,0,.69-.67q.33-.39.63-.8Z"/><path class="cls-1" d="M12.61,6.86a7.26,7.26,0,0,1-.94.87,5.17,5.17,0,0,1-1,.62,2.46,2.46,0,0,1-1,.23,1.47,1.47,0,0,1-.56-.12,1.59,1.59,0,0,1-.54-.38,1.86,1.86,0,0,1-.39-.67,2.29,2.29,0,0,1-.09-1,3.09,3.09,0,0,1,.3-1,4.62,4.62,0,0,1,.62-1,3.53,3.53,0,0,1,.83-.74,1.73,1.73,0,0,1,.93-.29.83.83,0,0,1,.64.22.71.71,0,0,1,.18.55,1.69,1.69,0,0,1-.21.67,2.71,2.71,0,0,1-.4.55,4.1,4.1,0,0,1-.5.45l-.5.36-.49.33L9,6.81a1.27,1.27,0,0,0,.11.49,1,1,0,0,0,.23.32.84.84,0,0,0,.32.18,1.32,1.32,0,0,0,.37.05,1.66,1.66,0,0,0,.83-.25A5.71,5.71,0,0,0,11.76,7a9.34,9.34,0,0,0,.77-.74Zm-2.2-2.81a.6.6,0,0,0-.33.14,1.74,1.74,0,0,0-.38.4,3.51,3.51,0,0,0-.35.64,3.77,3.77,0,0,0-.25.87l.3-.22.33-.24a3.26,3.26,0,0,0,.7-.68,1.18,1.18,0,0,0,.22-.5.48.48,0,0,0,0-.32A.23.23,0,0,0,10.41,4.06Z"/><path class="cls-1" d="M16.91,6.21q-.19.26-.46.57t-.6.63a6.52,6.52,0,0,1-.7.59,4.05,4.05,0,0,1-.75.43,1.88,1.88,0,0,1-.76.17,1.75,1.75,0,0,1-.86-.19,1.58,1.58,0,0,1-.55-.5A2,2,0,0,1,12,7.24a3.37,3.37,0,0,1-.08-.73A3.21,3.21,0,0,1,12,5.6a4.1,4.1,0,0,1,.49-1,3.2,3.2,0,0,1,.81-.86,1.92,1.92,0,0,1,1.16-.36.88.88,0,0,1,.64.26.9.9,0,0,1,.25.7,1.27,1.27,0,0,1-.07.42,1.33,1.33,0,0,1-.19.36.93.93,0,0,1-.28.25.67.67,0,0,1-.35.09.26.26,0,0,1-.23-.11.57.57,0,0,1-.09-.26,1.18,1.18,0,0,1,0-.29.68.68,0,0,1,0-.19.36.36,0,0,1,.13-.12l.16-.08a.26.26,0,0,0,.11-.11.3.3,0,0,0,0-.15.22.22,0,0,0,0-.14.18.18,0,0,0-.15-.06,1,1,0,0,0-.38.17,2.49,2.49,0,0,0-.56.5,3.36,3.36,0,0,0-.51.84,3,3,0,0,0-.23,1.17,1.38,1.38,0,0,0,.11.63,1,1,0,0,0,.68.59A1.53,1.53,0,0,0,14,7.9a1.5,1.5,0,0,0,.8-.29,6.4,6.4,0,0,0,.86-.67,9.6,9.6,0,0,0,.76-.79q.35-.4.52-.65a.44.44,0,0,1,.2-.18Z"/><path class="cls-1" d="M21.56,6.69q-.29.32-.63.63t-.67.57a4.88,4.88,0,0,1-.66.45,1.27,1.27,0,0,1-.59.2.63.63,0,0,1-.47-.3.89.89,0,0,1-.21-.58,3.29,3.29,0,0,1,.13-.78q.08-.29.23-.7a7,7,0,0,0,.23-.78A1.81,1.81,0,0,0,19,4.75a.27.27,0,0,0-.3-.26.8.8,0,0,0-.4.13,2.49,2.49,0,0,0-.43.33,4,4,0,0,0-.42.46,6,6,0,0,0-.35.5l-.19.9q-.08.38-.17.81t-.17.78a.41.41,0,0,1-.15.08l-.15,0h-.16l-.18-.07-.14-.12a.48.48,0,0,1-.11-.21q.53-2.17.83-3.48l.47-2,.26-1.14q0-.22.06-.43a3.12,3.12,0,0,0,0-.39,1.74,1.74,0,0,0,0-.36.89.89,0,0,1,.21-.09l.22-.06L17.94.1l.23,0,.18,0a.13.13,0,0,1,.11.08.29.29,0,0,1,.06.23q0,.18,0,.36l-.11.48q-.25.95-.55,1.85T17.27,5a4.57,4.57,0,0,1,.36-.48,3.61,3.61,0,0,1,.46-.45,2.67,2.67,0,0,1,.53-.34,1.37,1.37,0,0,1,.6-.13.91.91,0,0,1,.31.05.63.63,0,0,1,.26.18.81.81,0,0,1,.17.33,1.65,1.65,0,0,1,0,.51,1.92,1.92,0,0,1,0,.39q0,.2-.11.44T19.68,6l-.26.68q-.11.27-.16.46a.39.39,0,0,0,0,.33q.11.19.42.09a3.47,3.47,0,0,0,.93-.6l.32-.29.34-.36.3-.35Z"/><path class="cls-1" d="M25.29,6.86a7.26,7.26,0,0,1-.94.87,5.17,5.17,0,0,1-1,.62,2.46,2.46,0,0,1-1,.23,1.47,1.47,0,0,1-.56-.12,1.59,1.59,0,0,1-.54-.38,1.86,1.86,0,0,1-.39-.67,2.29,2.29,0,0,1-.09-1,3.09,3.09,0,0,1,.3-1,4.62,4.62,0,0,1,.62-1,3.53,3.53,0,0,1,.83-.74,1.73,1.73,0,0,1,.93-.29.83.83,0,0,1,.64.22.71.71,0,0,1,.18.55,1.69,1.69,0,0,1-.21.67,2.71,2.71,0,0,1-.4.55,4.1,4.1,0,0,1-.5.45l-.5.36-.49.33-.41.29a1.27,1.27,0,0,0,.11.49,1,1,0,0,0,.23.32.84.84,0,0,0,.32.18,1.32,1.32,0,0,0,.37.05,1.66,1.66,0,0,0,.83-.25A5.71,5.71,0,0,0,24.45,7a9.34,9.34,0,0,0,.77-.74q.36-.39.59-.67Zm-2.2-2.81a.6.6,0,0,0-.33.14,1.74,1.74,0,0,0-.38.4,3.51,3.51,0,0,0-.35.64,3.77,3.77,0,0,0-.25.87l.3-.22.33-.24a3.26,3.26,0,0,0,.7-.68,1.18,1.18,0,0,0,.22-.5.48.48,0,0,0,0-.32A.23.23,0,0,0,23.09,4.06Z"/><path class="cls-1" d="M28.52,5.2a.2.2,0,0,1,.12-.09.14.14,0,0,1,.12,0,.15.15,0,0,1,.05.12.47.47,0,0,1-.06.22c-.16.3-.4.59-.62,1s-.27.72-.47,1.08a3.75,3.75,0,0,1-.48.83c-.19.24-.68.22-.86.22a1.25,1.25,0,0,1-.64-.15,1.21,1.21,0,0,1-.4-.37,1.45,1.45,0,0,1-.21-.49,1.51,1.51,0,0,1,0-.49q0-.19.08-.67t.19-1.12q.12-.64.26-1.37t.31-1.41l-.4,0-.36,0a2.78,2.78,0,0,1-.71-.09,2.75,2.75,0,0,1-.5-.17.13.13,0,0,1-.08-.13A.42.42,0,0,1,23.9,2,.6.6,0,0,1,24,1.84a.28.28,0,0,1,.16-.06l.48,0h.56l.43,0,.4-.06q.15-.56.3-1a2.53,2.53,0,0,1,.26-.58.28.28,0,0,1,.16-.1L27.06,0a1,1,0,0,1,.27,0,.28.28,0,0,1,.19.09,1.1,1.1,0,0,1,0,.48,6.31,6.31,0,0,1-.13,1,6.43,6.43,0,0,1,.87.05q.38.05.65.12a3.37,3.37,0,0,1,.43.13l.25.09a.12.12,0,0,1,.09.12.43.43,0,0,1,0,.19.4.4,0,0,1-.13.17.25.25,0,0,1-.21,0l-.26,0-.35-.06-.49,0-.66,0h-.34l-.09.37a3.39,3.39,0,0,1-.11.38q-.15.47-.35,1t-.42,1.1c-.16.41-.26.85-.47,1.32a2.14,2.14,0,0,0-.07.77.89.89,0,0,0,.22.38.61.61,0,0,0,.38.14.66.66,0,0,0,.44-.07,1.68,1.68,0,0,0,.46-.53c.17-.26.19-.31.32-.54s.21-.35.34-.55.26-.43.37-.58Z"/><path class="cls-1" d="M27.27,8.24a.41.41,0,0,1-.18.17.23.23,0,0,1-.18,0,.16.16,0,0,1-.1-.12.35.35,0,0,1,0-.23L27,7.75l.29-.59.37-.75.38-.77L28.4,5l.22-.42-.18-.17a.47.47,0,0,1-.07-.23.82.82,0,0,1,.07-.4,2.38,2.38,0,0,1,.25-.47A2,2,0,0,1,29,2.91a.56.56,0,0,1,.36-.16.51.51,0,0,1,.46.21,1,1,0,0,1,.16.43,1.14,1.14,0,0,1,0,.39,1.13,1.13,0,0,1-.18.42l.09.05a.44.44,0,0,0,.19,0,1,1,0,0,0,.26,0,.89.89,0,0,1,.24,0,.52.52,0,0,1,.33.1.8.8,0,0,1,.21.25,1.24,1.24,0,0,1,.12.32,2.07,2.07,0,0,1,.05.31,1,1,0,0,1-.15.61q-.19.32-.46.69T30.38,7a.91.91,0,0,0-.14.53.65.65,0,0,0,.08.25q.06.09.33.09a.86.86,0,0,0,.44-.15,3.29,3.29,0,0,0,.49-.37,6.76,6.76,0,0,0,.5-.5l.46-.54q.21-.26.36-.47l.22-.3a.3.3,0,0,1,.15-.13.2.2,0,0,1,.16,0,.18.18,0,0,1,.09.14.45.45,0,0,1-.09.28l-.24.38q-.17.26-.41.57t-.53.65a6,6,0,0,1-.62.61,3.8,3.8,0,0,1-.64.45,1.29,1.29,0,0,1-.62.18,1,1,0,0,1-.5-.12,1,1,0,0,1-.32-.29,1.1,1.1,0,0,1-.18-.37,1.21,1.21,0,0,1,0-.38,1,1,0,0,1,.08-.3q.06-.16.15-.33l.19-.34.18-.33q.2-.34.32-.58a.93.93,0,0,0,.12-.4.37.37,0,0,0,0-.19A.16.16,0,0,0,30.17,5h-.4a.63.63,0,0,1-.26,0l-.2-.07-.21.35-.38.63-.46.76-.45.74L27.45,8Z"/><path class="cls-1" d="M37.74,4.94a2.27,2.27,0,0,1-.23.21q-.24.21-.57.46t-.71.48a3.69,3.69,0,0,1-.74.35,4.07,4.07,0,0,1-.32.83,2.74,2.74,0,0,1-.47.67,2.07,2.07,0,0,1-.62.44,1.79,1.79,0,0,1-.76.16,1.24,1.24,0,0,1-.76-.21,1.27,1.27,0,0,1-.41-.51A2,2,0,0,1,32,7.15q0-.36,0-.68A2.58,2.58,0,0,1,32,6a4.44,4.44,0,0,1,.15-.55,3.86,3.86,0,0,1,.24-.56,2.77,2.77,0,0,1,.35-.52A1,1,0,0,1,33,4a1.28,1.28,0,0,1,.34-.25,1.82,1.82,0,0,1,.42-.15,1.88,1.88,0,0,1,.43-.05h.06l.06,0a1.17,1.17,0,0,1,.38.12A1.62,1.62,0,0,1,35.1,4a1.76,1.76,0,0,1,.52,1.31q0,.09,0,.23t0,.23a5.83,5.83,0,0,0,.56-.26l.57-.32q.28-.17.51-.35a3.55,3.55,0,0,0,.38-.32.42.42,0,0,1,.2-.12Zm-5,1.78a3.66,3.66,0,0,0,0,.42,1.24,1.24,0,0,0,.09.36.71.71,0,0,0,.19.26.45.45,0,0,0,.3.1.77.77,0,0,0,.39-.1,1.24,1.24,0,0,0,.32-.26,1.93,1.93,0,0,0,.25-.36,3.25,3.25,0,0,0,.19-.43l-.16,0h-.17a1.17,1.17,0,0,1-.77-.26,1.74,1.74,0,0,1-.5-.67q-.07.25-.12.48A2.27,2.27,0,0,0,32.75,6.72Zm.75-2.06a.7.7,0,0,0,0,.22,3.46,3.46,0,0,0,0,.39,1,1,0,0,0,.12.37.73.73,0,0,0,.3.28,1.2,1.2,0,0,0,.57.11h.12l.12,0,.06-.28a1,1,0,0,0,0-.22,2.23,2.23,0,0,0,0-.46,2,2,0,0,0-.09-.43,1,1,0,0,0-.16-.32.3.3,0,0,0-.24-.12.82.82,0,0,0-.43.12A1.42,1.42,0,0,0,33.5,4.66Z"/><path class="cls-1" d="M39.64,8.59a1,1,0,0,1-.46-.1.85.85,0,0,1-.31-.26.89.89,0,0,1-.15-.38,1.18,1.18,0,0,1,0-.46q0-.16.12-.44l.17-.6q.09-.32.16-.64a4.18,4.18,0,0,0,.1-.59,1.25,1.25,0,0,0,0-.43.2.2,0,0,0-.2-.17.74.74,0,0,0-.39.12,2.15,2.15,0,0,0-.4.33,4.87,4.87,0,0,0-.41.49l-.4.57q-.11.4-.18.7l-.12.54q-.05.24-.1.42T37,8a.45.45,0,0,1-.21.23,1.85,1.85,0,0,1-.37.18,1.06,1.06,0,0,1-.35.07q-.15,0-.12-.11s0-.15.08-.32l.15-.58.18-.71.18-.71.13-.6q.06-.28.15-.66T37,4a.75.75,0,0,1,.17-.11l.18-.06.2,0h.19l.17,0a.48.48,0,0,1,.16.09Q38,4,38,4.16l-.09.31q0,.19-.12.39a5.36,5.36,0,0,1,.35-.43A3.08,3.08,0,0,1,38.54,4,2.27,2.27,0,0,1,39,3.75a1.32,1.32,0,0,1,.53-.11.66.66,0,0,1,.4.13.85.85,0,0,1,.28.36,1.58,1.58,0,0,1,.12.54,2.13,2.13,0,0,1-.09.69l-.13.52L40,6.45q-.09.33-.22.73a1.27,1.27,0,0,0-.05.45q0,.19.23.19a1,1,0,0,0,.53-.26,5.6,5.6,0,0,0,.65-.62q.33-.36.62-.74t.45-.62a.59.59,0,0,1,.2-.2.14.14,0,0,1,.15,0s.05.08.05.16a.74.74,0,0,1-.09.31q-.08.16-.25.43t-.4.57q-.23.3-.5.62a5.46,5.46,0,0,1-.56.56,3.45,3.45,0,0,1-.58.41A1.13,1.13,0,0,1,39.64,8.59Z"/><path class="cls-1" d="M47.22,6.41,47,6.75q-.18.22-.43.48T46,7.77a5.39,5.39,0,0,1-.69.5q0,.27-.18.77t-.34,1.08q-.21.59-.49,1.19a7.43,7.43,0,0,1-.63,1.1,3.51,3.51,0,0,1-.76.81,1.51,1.51,0,0,1-1.58.16,1,1,0,0,1-.38-.39,1.39,1.39,0,0,1-.15-.53,4.46,4.46,0,0,1,0-.56,2.3,2.3,0,0,1,.21-.81,4.58,4.58,0,0,1,.56-.94,5.64,5.64,0,0,1,.86-.9,5.07,5.07,0,0,1,1.13-.72l.56-.25L44.55,8a.8.8,0,0,0,0-.52.24.24,0,0,0-.22-.13,1,1,0,0,0-.5.19,5.43,5.43,0,0,0-.71.59.39.39,0,0,1-.21,0,.65.65,0,0,1-.26-.24.62.62,0,0,1-.11-.4.42.42,0,0,1,.18-.32l.49-.42A4,4,0,0,0,43.86,6l.23-.32q.13-.19.27-.42t.26-.47a3.23,3.23,0,0,0,.19-.47,2.89,2.89,0,0,0-.68,0l-.5.11-.53.15a4.26,4.26,0,0,0-.63.26.15.15,0,0,1-.07-.09.86.86,0,0,1,0-.16,2.14,2.14,0,0,1,0-.23.64.64,0,0,1,.05-.28.54.54,0,0,1,.13-.18.7.7,0,0,1,.18-.11l.16-.06.32-.06.54-.08.63-.05H45a1.52,1.52,0,0,1,.7.15.29.29,0,0,1,.08.35q-.08.23-.32.79a8.1,8.1,0,0,1-.71,1.28l-.36.5A5.05,5.05,0,0,1,44,7a2.34,2.34,0,0,1,.4-.15,1.55,1.55,0,0,1,.4-.05.35.35,0,0,1,.36.26,2,2,0,0,1,.1.56A6.22,6.22,0,0,0,46.13,7a7.42,7.42,0,0,0,.79-.84A.42.42,0,0,1,47.11,6a.12.12,0,0,1,.13,0,.22.22,0,0,1,0,.15A.37.37,0,0,1,47.22,6.41ZM44.29,9a1.46,1.46,0,0,1,.05-.17l.05-.16a9.59,9.59,0,0,0-1.11.72,5.8,5.8,0,0,0-.87.8,3.68,3.68,0,0,0-.58.88,2.49,2.49,0,0,0-.23.93,1,1,0,0,0,.09.48.36.36,0,0,0,.36.2.86.86,0,0,0,.6-.4,6.52,6.52,0,0,0,.63-1q.31-.58.58-1.21T44.29,9Z"/></g></g></svg>